HIERARCHY
ROOT root
{
	OFFSET	0	13.1	24.9
	CHANNELS 6  Xposition Yposition Zposition Xrotation Yrotation Zrotation
	JOINT spine_1
	{
		OFFSET	0	9.99999	0
		CHANNELS 3  Xrotation Yrotation Zrotation
		JOINT spine_2
		{
			OFFSET	0	112	-10
			CHANNELS 3  Xrotation Yrotation Zrotation
			JOINT spine_3
			{
				OFFSET	0	206.5	19.3
				CHANNELS 3  Xrotation Yrotation Zrotation
				JOINT spine_4
				{
					OFFSET	0	110.4	14.6
					CHANNELS 3  Xrotation Yrotation Zrotation
					JOINT neck_1
					{
						OFFSET	0	71.8	-50.3
						CHANNELS 3  Xrotation Yrotation Zrotation
						JOINT neck_2
						{
							OFFSET	0	86.2	-25.8
							CHANNELS 3  Xrotation Yrotation Zrotation
							JOINT head_ee
							{
								OFFSET	0	179.8	-8.7
								CHANNELS 3  Xrotation Yrotation Zrotation
								End Site
								{
									OFFSET	1	0	0
								}
							}
						}
					}
					JOINT left_clavicle
					{
						OFFSET	-43.2	22.4	-70.8
						CHANNELS 3  Xrotation Yrotation Zrotation
						JOINT left_shoulder
						{
							OFFSET	-93.9	-5.79999	48.7
							CHANNELS 3  Xrotation Yrotation Zrotation
							JOINT left_elbow
							{
								OFFSET	-291.4	-30.8	15.2
								CHANNELS 3  Xrotation Yrotation Zrotation
								JOINT left_lowarm_twist
								{
									OFFSET	-110.7	-3.89999	13.6
									CHANNELS 3  Xrotation Yrotation Zrotation
									JOINT left_hand
									{
										OFFSET	-110.7	-3.89999	13.6
										CHANNELS 3  Xrotation Yrotation Zrotation
										JOINT left_ee
										{
											OFFSET	-80.8	-5.10001	12.1
											CHANNELS 3  Xrotation Yrotation Zrotation
											End Site
											{
												OFFSET	1	0	0
											}
										}
									}
								}
							}
						}
					}
					JOINT right_clavicle
					{
						OFFSET	43.2	22.4	-70.8
						CHANNELS 3  Xrotation Yrotation Zrotation
						JOINT right_shoulder
						{
							OFFSET	93.9	-5.79999	48.7
							CHANNELS 3  Xrotation Yrotation Zrotation
							JOINT right_elbow
							{
								OFFSET	291.4	-30.8	15.2
								CHANNELS 3  Xrotation Yrotation Zrotation
								JOINT right_lowarm_twist
								{
									OFFSET	110.7	-3.89999	13.6
									CHANNELS 3  Xrotation Yrotation Zrotation
									JOINT right_hand
									{
										OFFSET	110.7	-3.89999	13.6
										CHANNELS 3  Xrotation Yrotation Zrotation
										JOINT right_ee
										{
											OFFSET	80.8	-5.10001	12.1
											CHANNELS 3  Xrotation Yrotation Zrotation
											End Site
											{
												OFFSET	1	0	0
											}
										}
									}
								}
							}
						}
					}
				}
			}
		}
	}
	JOINT left_hip
	{
		OFFSET	-82.8	-127.5	0.300001
		CHANNELS 3  Xrotation Yrotation Zrotation
		JOINT left_knee
		{
			OFFSET	-28.2	-396.7	2.2
			CHANNELS 3  Xrotation Yrotation Zrotation
			JOINT left_ankle
			{
				OFFSET	-11.7	-411.3	35.4
				CHANNELS 3  Xrotation Yrotation Zrotation
				JOINT left_toes
				{
					OFFSET	0	-60	-88.6
					CHANNELS 3  Xrotation Yrotation Zrotation
					JOINT left_foot_ee
					{
						OFFSET	-22.5	-16.5	-42.2
						CHANNELS 3  Xrotation Yrotation Zrotation
						End Site
						{
							OFFSET	1	0	0
						}
					}
				}
			}
		}
	}
	JOINT right_hip
	{
		OFFSET	82.8	-127.5	0.300001
		CHANNELS 3  Xrotation Yrotation Zrotation
		JOINT right_knee
		{
			OFFSET	28.2	-396.7	2.2
			CHANNELS 3  Xrotation Yrotation Zrotation
			JOINT right_ankle
			{
				OFFSET	11.7	-411.3	35.4
				CHANNELS 3  Xrotation Yrotation Zrotation
				JOINT right_toes
				{
					OFFSET	0	-60	-88.6
					CHANNELS 3  Xrotation Yrotation Zrotation
					JOINT right_foot_ee
					{
						OFFSET	22.5	-16.5	-42.2
						CHANNELS 3  Xrotation Yrotation Zrotation
						End Site
						{
							OFFSET	1	0	0
						}
					}
				}
			}
		}
	}
}
MOTION
Frames: 5
Frame Time: 0.02
3574.42 741.953 -1474.73 -165.742410121 83.1093321415 176.873296526 -4.06234 -1.0427 -5.64619 -4.04488 -0.681904 -5.70085 -3.94767 0.925691 -5.66649 -3.99245 0.0206927 -5.74132 -6.29863 4.11689 5.78849 -6.2092 3.37343 6.60933 -0.0 0.0 -0.0 10.9034 11.2372 20.3945 9.81475 -28.7123 81.0321 1.00964 -26.5713 0.238408 57.4006 -1.54805 -6.86302 -2.40528 26.8007 -2.74999 -0.0 0.0 -0.0 8.15497 -4.60855 -15.7576 -21.9479 32.4234 -43.2408 0.686922 18.7925 -0.113674 -17.4377 0.929295 -2.01823 -5.79167 -27.2866 21.7164 0.0 0.0 0.0 -5.66177 6.75427 -12.9898 1.90669 -0.0831997 -0.280737 17.7882 23.4855 -2.55364 36.0165 -0.0 -0.0 -0.0 0.0 -0.0 1.76096 -0.305229 -9.30312 -9.34075 -0.270441 -1.40642 -25.6073 -29.4331 -4.12013 36.396 -0.0 -0.0 0.0 0.0 0.0 
3570.32585457 741.633 -1471.82476366 -168.321736746 84.4021978933 179.588725602 -4.20593 -0.762302 -5.70314 -4.18793 -0.398463 -5.73993 -4.11909 1.2271 -5.62175 -4.16301 0.325387 -5.74452 -5.50212 3.00441 7.21059 -5.3572 0.158511 7.8529 -0.0 0.0 -0.0 11.0997 11.0143 20.795 9.86757 -28.5533 81.1377 1.05009 -27.482 0.256787 57.9446 -1.59439 -6.91511 -2.33482 25.7034 -2.91869 -0.0 0.0 -0.0 8.29912 -4.11176 -16.0573 -23.1166 31.6536 -42.3081 0.678388 18.5752 -0.110941 -18.1322 0.978743 -2.09213 -5.93336 -26.8016 22.9767 0.0 0.0 0.0 -6.16512 4.89569 -13.3387 -0.843528 0.0338128 0.125033 18.6545 23.8133 -2.67328 40.1441 -0.0 -0.0 -0.0 0.0 -0.0 1.7189 0.988705 -9.11799 -10.3837 -0.286314 -1.56567 -25.8687 -29.1921 -4.15549 33.9331 -0.0 -0.0 0.0 0.0 0.0 
3568.88179457 738.384 -1470.32492695 -171.419416956 84.5322833715 -177.333437994 -4.26162 -0.828346 -5.70201 -4.24366 -0.464447 -5.74298 -4.16753 1.1691 -5.6422 -4.21183 0.264898 -5.75559 -5.03351 4.13075 6.68874 -4.91316 2.56121 7.52507 -0.0 0.0 -0.0 10.9764 12.1957 20.3931 10.8193 -28.9049 81.7713 1.09318 -28.4359 0.276989 58.1079 -1.6084 -6.93066 -2.3294 28.09 -1.6784 -0.0 0.0 -0.0 8.44116 -3.24257 -16.3704 -24.2913 31.4289 -41.2453 0.686006 18.7692 -0.113379 -12.8436 0.625258 -1.51505 -4.90646 -26.424 17.1111 0.0 0.0 0.0 -5.96979 4.76671 -13.2155 -2.01569 0.0777307 0.299557 21.5376 24.9727 -3.06893 39.6167 -0.0 -0.0 -0.0 0.0 -0.0 1.89797 2.38478 -9.25273 -11.2971 -0.297832 -1.70535 -26.2345 -30.067 -4.23891 37.068 -0.0 -0.0 0.0 0.0 0.0 
3568.8689134 738.384 -1470.34117036 -171.149583948 84.6981973678 -177.604466775 -4.26162 -0.828346 -5.70201 -4.24366 -0.464447 -5.74298 -4.16753 1.1691 -5.6422 -4.21183 0.264898 -5.75559 -5.03351 4.13075 6.68874 -4.91316 2.56121 7.52507 -0.0 0.0 -0.0 10.9764 12.1957 20.3931 10.8193 -28.9049 81.7713 1.09318 -28.4359 0.276989 58.1079 -1.6084 -6.93066 -2.3294 28.09 -1.6784 -0.0 0.0 -0.0 8.44116 -3.24257 -16.3704 -24.2913 31.4289 -41.2453 0.686006 18.7692 -0.113379 -12.8436 0.625258 -1.51505 -4.90646 -26.424 17.1111 0.0 0.0 0.0 -5.96979 4.76671 -13.2155 -2.01569 0.0777307 0.299557 21.5376 24.9727 -3.06893 39.6167 -0.0 -0.0 -0.0 0.0 -0.0 1.89797 2.38478 -9.25273 -11.2971 -0.297832 -1.70535 -26.2345 -30.067 -4.23891 37.068 -0.0 -0.0 0.0 0.0 0.0 
3568.87551485 738.384 -1470.33283359 -171.290074108 84.6131067713 -177.463363264 -4.26162 -0.828346 -5.70201 -4.24366 -0.464447 -5.74298 -4.16753 1.1691 -5.6422 -4.21183 0.264898 -5.75559 -5.03351 4.13075 6.68874 -4.91316 2.56121 7.52507 -0.0 0.0 -0.0 10.9764 12.1957 20.3931 10.8193 -28.9049 81.7713 1.09318 -28.4359 0.276989 58.1079 -1.6084 -6.93066 -2.3294 28.09 -1.6784 -0.0 0.0 -0.0 8.44116 -3.24257 -16.3704 -24.2913 31.4289 -41.2453 0.686006 18.7692 -0.113379 -12.8436 0.625258 -1.51505 -4.90646 -26.424 17.1111 0.0 0.0 0.0 -5.96979 4.76671 -13.2155 -2.01569 0.0777307 0.299557 21.5376 24.9727 -3.06893 39.6167 -0.0 -0.0 -0.0 0.0 -0.0 1.89797 2.38478 -9.25273 -11.2971 -0.297832 -1.70535 -26.2345 -30.067 -4.23891 37.068 -0.0 -0.0 0.0 0.0 0.0 
